<?xml version="1.0" encoding="UTF-8"?><svg id="Layer_2" xmlns="http://www.w3.org/2000/svg" viewBox="0 0 61.79 74.76"><defs><style>.cls-1{fill:#2b595b;stroke-width:0px;}</style></defs><g id="Layer_1-2"><path class="cls-1" d="m29.73.27L1.27,15.71c-.78.43-1.27,1.3-1.27,2.16,0,18.52,3.86,30.54,9.6,39,5.76,8.47,13.25,13.19,19.99,17.51.77.49,1.84.49,2.62,0,6.74-4.32,14.23-9.05,19.99-17.51,5.73-8.47,9.59-20.48,9.59-39,0-.87-.49-1.73-1.27-2.16L32.06.27c-.89-.43-1.56-.28-2.33,0Zm3.6,6.25l23.51,12.76c-.08,5.96-.58,11.12-1.38,15.64h-22.12V6.52ZM7.41,39.82h21.05v28c-5.41-3.58-10.66-7.58-14.8-13.68-2.57-3.78-4.73-8.41-6.25-14.32Z"/></g></svg>