<?xml version="1.0" encoding="UTF-8"?><svg id="Layer_2" xmlns="http://www.w3.org/2000/svg" viewBox="0 0 74.53 76.23"><defs><style>.cls-1{fill:#2b595b;stroke-width:0px;}</style></defs><g id="Layer_1-2"><path class="cls-1" d="m74.37,41.82c-.83-3.99-4.75-6.55-8.74-5.71-2.36.5-4.2,2.08-5.15,4.11l-9.78-1.51c.02-.95-.04-1.91-.24-2.87-.83-3.97-3.48-7.06-6.87-8.7l3.29-8.85c1.1.31,2.29.4,3.48.14,3.99-.84,6.54-4.75,5.71-8.74-.83-3.99-4.75-6.55-8.74-5.71s-6.55,4.75-5.71,8.74c.41,1.97,1.58,3.59,3.14,4.62l-3.34,8.98c-1.85-.5-3.83-.63-5.83-.21-.52.11-1,.3-1.49.47l-5.38-13.25c2.28-1.65,3.52-4.54,2.9-7.48C30.78,1.88,26.86-.68,22.87.16c-3.98.84-6.55,4.75-5.71,8.74.84,3.99,4.75,6.55,8.74,5.71.25-.06.48-.16.73-.24l5.35,13.18c-4.62,2.62-7.26,7.97-6.11,13.44.18.9.48,1.76.84,2.56l-14.53,10.09c-1.71-1.47-4.04-2.17-6.41-1.64-3.98.89-6.49,4.83-5.61,8.8.89,3.98,4.82,6.49,8.8,5.61,3.98-.89,6.49-4.83,5.61-8.81-.18-.8-.51-1.53-.92-2.2l14.2-9.81c2.79,4,7.8,6.17,12.87,5.1.04,0,.06-.02.1-.03l3.14,11.2c-3.52,1.16-5.69,4.78-4.91,8.49.83,3.99,4.75,6.55,8.74,5.71,3.99-.83,6.55-4.75,5.71-8.74-.73-3.48-3.82-5.88-7.25-5.87l-3.23-11.48c3.83-1.61,6.56-5,7.4-8.96l9.41,1.45c-.1.78-.1,1.58.07,2.39.84,3.99,4.75,6.54,8.74,5.71,3.99-.84,6.54-4.75,5.71-8.74"/></g></svg>