<?xml version="1.0" encoding="UTF-8"?><svg id="Layer_2" xmlns="http://www.w3.org/2000/svg" viewBox="0 0 67.34 77.46"><defs><style>.cls-1{fill-rule:evenodd;}.cls-1,.cls-2{fill:#2b595b;stroke-width:0px;}</style></defs><g id="Layer_1-2"><path class="cls-2" d="m60.01,22.91l-7.17,4.24c3.83,4.49,6.19,10.28,6.19,16.63,0,14.02-11.41,25.43-25.43,25.43s-25.44-11.41-25.44-25.43,11.25-25.28,25.11-25.43v10.1l22.91-14.18L33.35,0v10.1C14.92,10.27,0,25.36,0,43.78s15.08,33.68,33.67,33.68,33.67-15.09,33.67-33.68c0-7.91-2.77-15.16-7.34-20.87"/><polygon class="cls-1" points="43.12 47.25 36.01 47.25 36.01 54.37 30.94 54.37 30.94 47.25 23.82 47.25 23.82 42.18 30.94 42.18 30.94 35.07 36.01 35.07 36.01 42.18 43.12 42.18 43.12 47.25"/></g></svg>